<svg xmlns="http://www.w3.org/2000/svg" viewBox="0 0 802 178" 
     style="background-color: #0d1117;">
    
    <defs>
        <!-- Pac-Man gradient -->
        <radialGradient id="pacmanGradient">
            <stop offset="0%" stop-color="#ffff66"/>
            <stop offset="100%" stop-color="#ffff00"/>
        </radialGradient>
        
        <!-- Glow effect -->
        <filter id="glow">
            <feGaussianBlur stdDeviation="1.5" result="coloredBlur"/>
            <feMerge>
                <feMergeNode in="coloredBlur"/>
                <feMergeNode in="SourceGraphic"/>
            </feMerge>
        </filter>
        
        <!-- Drop shadow -->
        <filter id="shadow">
            <feDropShadow dx="0" dy="1" stdDeviation="1" flood-opacity="0.3"/>
        </filter>
    </defs>
    
    <!-- Title -->
    <text x="401" y="20" fill="#8b949e" text-anchor="middle" 
          font-family="'Segoe UI', Arial, sans-serif" font-size="14" font-weight="600">
        MohamedEl-Refa3y's Contribution Chomper
    </text>
    
    <!-- Stats -->
    <text x="401" y="38" fill="#8b949e" text-anchor="middle" 
          font-family="'Segoe UI', Arial, sans-serif" font-size="11">
        0 contributions | 0 active days | 2024-2026
    </text>
    
    <!-- Day labels -->
    <g fill="#8b949e" font-family="'Segoe UI', Arial, sans-serif" font-size="9">
        <text x="32" y="67" text-anchor="end">Mon</text>
        <text x="32" y="95" text-anchor="end">Wed</text>
        <text x="32" y="123" text-anchor="end">Fri</text>
    </g>
    
    <!-- Contribution cells -->
    <g id="cells">
        <rect x="40" y="50" width="11" height="11" 
              rx="2" fill="#161b22"/>
        <rect x="40" y="64" width="11" height="11" 
              rx="2" fill="#161b22"/>
        <rect x="40" y="78" width="11" height="11" 
              rx="2" fill="#161b22"/>
        <rect x="40" y="92" width="11" height="11" 
              rx="2" fill="#161b22"/>
        <rect x="40" y="106" width="11" height="11" 
              rx="2" fill="#161b22"/>
        <rect x="40" y="120" width="11" height="11" 
              rx="2" fill="#161b22"/>
        <rect x="40" y="134" width="11" height="11" 
              rx="2" fill="#161b22"/>
        <rect x="54" y="50" width="11" height="11" 
              rx="2" fill="#161b22"/>
        <rect x="54" y="64" width="11" height="11" 
              rx="2" fill="#161b22"/>
        <rect x="54" y="78" width="11" height="11" 
              rx="2" fill="#161b22"/>
        <rect x="54" y="92" width="11" height="11" 
              rx="2" fill="#161b22"/>
        <rect x="54" y="106" width="11" height="11" 
              rx="2" fill="#161b22"/>
        <rect x="54" y="120" width="11" height="11" 
              rx="2" fill="#161b22"/>
        <rect x="54" y="134" width="11" height="11" 
              rx="2" fill="#161b22"/>
        <rect x="68" y="50" width="11" height="11" 
              rx="2" fill="#161b22"/>
        <rect x="68" y="64" width="11" height="11" 
              rx="2" fill="#161b22"/>
        <rect x="68" y="78" width="11" height="11" 
              rx="2" fill="#161b22"/>
        <rect x="68" y="92" width="11" height="11" 
              rx="2" fill="#161b22"/>
        <rect x="68" y="106" width="11" height="11" 
              rx="2" fill="#161b22"/>
        <rect x="68" y="120" width="11" height="11" 
              rx="2" fill="#161b22"/>
        <rect x="68" y="134" width="11" height="11" 
              rx="2" fill="#161b22"/>
        <rect x="82" y="50" width="11" height="11" 
              rx="2" fill="#161b22"/>
        <rect x="82" y="64" width="11" height="11" 
              rx="2" fill="#161b22"/>
        <rect x="82" y="78" width="11" height="11" 
              rx="2" fill="#161b22"/>
        <rect x="82" y="92" width="11" height="11" 
              rx="2" fill="#161b22"/>
        <rect x="82" y="106" width="11" height="11" 
              rx="2" fill="#161b22"/>
        <rect x="82" y="120" width="11" height="11" 
              rx="2" fill="#161b22"/>
        <rect x="82" y="134" width="11" height="11" 
              rx="2" fill="#161b22"/>
        <rect x="96" y="50" width="11" height="11" 
              rx="2" fill="#161b22"/>
        <rect x="96" y="64" width="11" height="11" 
              rx="2" fill="#161b22"/>
        <rect x="96" y="78" width="11" height="11" 
              rx="2" fill="#161b22"/>
        <rect x="96" y="92" width="11" height="11" 
              rx="2" fill="#161b22"/>
        <rect x="96" y="106" width="11" height="11" 
              rx="2" fill="#161b22"/>
        <rect x="96" y="120" width="11" height="11" 
              rx="2" fill="#161b22"/>
        <rect x="96" y="134" width="11" height="11" 
              rx="2" fill="#161b22"/>
        <rect x="110" y="50" width="11" height="11" 
              rx="2" fill="#161b22"/>
        <rect x="110" y="64" width="11" height="11" 
              rx="2" fill="#161b22"/>
        <rect x="110" y="78" width="11" height="11" 
              rx="2" fill="#161b22"/>
        <rect x="110" y="92" width="11" height="11" 
              rx="2" fill="#161b22"/>
        <rect x="110" y="106" width="11" height="11" 
              rx="2" fill="#161b22"/>
        <rect x="110" y="120" width="11" height="11" 
              rx="2" fill="#161b22"/>
        <rect x="110" y="134" width="11" height="11" 
              rx="2" fill="#161b22"/>
        <rect x="124" y="50" width="11" height="11" 
              rx="2" fill="#161b22"/>
        <rect x="124" y="64" width="11" height="11" 
              rx="2" fill="#161b22"/>
        <rect x="124" y="78" width="11" height="11" 
              rx="2" fill="#161b22"/>
        <rect x="124" y="92" width="11" height="11" 
              rx="2" fill="#161b22"/>
        <rect x="124" y="106" width="11" height="11" 
              rx="2" fill="#161b22"/>
        <rect x="124" y="120" width="11" height="11" 
              rx="2" fill="#161b22"/>
        <rect x="124" y="134" width="11" height="11" 
              rx="2" fill="#161b22"/>
        <rect x="138" y="50" width="11" height="11" 
              rx="2" fill="#161b22"/>
        <rect x="138" y="64" width="11" height="11" 
              rx="2" fill="#161b22"/>
        <rect x="138" y="78" width="11" height="11" 
              rx="2" fill="#161b22"/>
        <rect x="138" y="92" width="11" height="11" 
              rx="2" fill="#161b22"/>
        <rect x="138" y="106" width="11" height="11" 
              rx="2" fill="#161b22"/>
        <rect x="138" y="120" width="11" height="11" 
              rx="2" fill="#161b22"/>
        <rect x="138" y="134" width="11" height="11" 
              rx="2" fill="#161b22"/>
        <rect x="152" y="50" width="11" height="11" 
              rx="2" fill="#161b22"/>
        <rect x="152" y="64" width="11" height="11" 
              rx="2" fill="#161b22"/>
        <rect x="152" y="78" width="11" height="11" 
              rx="2" fill="#161b22"/>
        <rect x="152" y="92" width="11" height="11" 
              rx="2" fill="#161b22"/>
        <rect x="152" y="106" width="11" height="11" 
              rx="2" fill="#161b22"/>
        <rect x="152" y="120" width="11" height="11" 
              rx="2" fill="#161b22"/>
        <rect x="152" y="134" width="11" height="11" 
              rx="2" fill="#161b22"/>
        <rect x="166" y="50" width="11" height="11" 
              rx="2" fill="#161b22"/>
        <rect x="166" y="64" width="11" height="11" 
              rx="2" fill="#161b22"/>
        <rect x="166" y="78" width="11" height="11" 
              rx="2" fill="#161b22"/>
        <rect x="166" y="92" width="11" height="11" 
              rx="2" fill="#161b22"/>
        <rect x="166" y="106" width="11" height="11" 
              rx="2" fill="#161b22"/>
        <rect x="166" y="120" width="11" height="11" 
              rx="2" fill="#161b22"/>
        <rect x="166" y="134" width="11" height="11" 
              rx="2" fill="#161b22"/>
        <rect x="180" y="50" width="11" height="11" 
              rx="2" fill="#161b22"/>
        <rect x="180" y="64" width="11" height="11" 
              rx="2" fill="#161b22"/>
        <rect x="180" y="78" width="11" height="11" 
              rx="2" fill="#161b22"/>
        <rect x="180" y="92" width="11" height="11" 
              rx="2" fill="#161b22"/>
        <rect x="180" y="106" width="11" height="11" 
              rx="2" fill="#161b22"/>
        <rect x="180" y="120" width="11" height="11" 
              rx="2" fill="#161b22"/>
        <rect x="180" y="134" width="11" height="11" 
              rx="2" fill="#161b22"/>
        <rect x="194" y="50" width="11" height="11" 
              rx="2" fill="#161b22"/>
        <rect x="194" y="64" width="11" height="11" 
              rx="2" fill="#161b22"/>
        <rect x="194" y="78" width="11" height="11" 
              rx="2" fill="#161b22"/>
        <rect x="194" y="92" width="11" height="11" 
              rx="2" fill="#161b22"/>
        <rect x="194" y="106" width="11" height="11" 
              rx="2" fill="#161b22"/>
        <rect x="194" y="120" width="11" height="11" 
              rx="2" fill="#161b22"/>
        <rect x="194" y="134" width="11" height="11" 
              rx="2" fill="#161b22"/>
        <rect x="208" y="50" width="11" height="11" 
              rx="2" fill="#161b22"/>
        <rect x="208" y="64" width="11" height="11" 
              rx="2" fill="#161b22"/>
        <rect x="208" y="78" width="11" height="11" 
              rx="2" fill="#161b22"/>
        <rect x="208" y="92" width="11" height="11" 
              rx="2" fill="#161b22"/>
        <rect x="208" y="106" width="11" height="11" 
              rx="2" fill="#161b22"/>
        <rect x="208" y="120" width="11" height="11" 
              rx="2" fill="#161b22"/>
        <rect x="208" y="134" width="11" height="11" 
              rx="2" fill="#161b22"/>
        <rect x="222" y="50" width="11" height="11" 
              rx="2" fill="#161b22"/>
        <rect x="222" y="64" width="11" height="11" 
              rx="2" fill="#161b22"/>
        <rect x="222" y="78" width="11" height="11" 
              rx="2" fill="#161b22"/>
        <rect x="222" y="92" width="11" height="11" 
              rx="2" fill="#161b22"/>
        <rect x="222" y="106" width="11" height="11" 
              rx="2" fill="#161b22"/>
        <rect x="222" y="120" width="11" height="11" 
              rx="2" fill="#161b22"/>
        <rect x="222" y="134" width="11" height="11" 
              rx="2" fill="#161b22"/>
        <rect x="236" y="50" width="11" height="11" 
              rx="2" fill="#161b22"/>
        <rect x="236" y="64" width="11" height="11" 
              rx="2" fill="#161b22"/>
        <rect x="236" y="78" width="11" height="11" 
              rx="2" fill="#161b22"/>
        <rect x="236" y="92" width="11" height="11" 
              rx="2" fill="#161b22"/>
        <rect x="236" y="106" width="11" height="11" 
              rx="2" fill="#161b22"/>
        <rect x="236" y="120" width="11" height="11" 
              rx="2" fill="#161b22"/>
        <rect x="236" y="134" width="11" height="11" 
              rx="2" fill="#161b22"/>
        <rect x="250" y="50" width="11" height="11" 
              rx="2" fill="#161b22"/>
        <rect x="250" y="64" width="11" height="11" 
              rx="2" fill="#161b22"/>
        <rect x="250" y="78" width="11" height="11" 
              rx="2" fill="#161b22"/>
        <rect x="250" y="92" width="11" height="11" 
              rx="2" fill="#161b22"/>
        <rect x="250" y="106" width="11" height="11" 
              rx="2" fill="#161b22"/>
        <rect x="250" y="120" width="11" height="11" 
              rx="2" fill="#161b22"/>
        <rect x="250" y="134" width="11" height="11" 
              rx="2" fill="#161b22"/>
        <rect x="264" y="50" width="11" height="11" 
              rx="2" fill="#161b22"/>
        <rect x="264" y="64" width="11" height="11" 
              rx="2" fill="#161b22"/>
        <rect x="264" y="78" width="11" height="11" 
              rx="2" fill="#161b22"/>
        <rect x="264" y="92" width="11" height="11" 
              rx="2" fill="#161b22"/>
        <rect x="264" y="106" width="11" height="11" 
              rx="2" fill="#161b22"/>
        <rect x="264" y="120" width="11" height="11" 
              rx="2" fill="#161b22"/>
        <rect x="264" y="134" width="11" height="11" 
              rx="2" fill="#161b22"/>
        <rect x="278" y="50" width="11" height="11" 
              rx="2" fill="#161b22"/>
        <rect x="278" y="64" width="11" height="11" 
              rx="2" fill="#161b22"/>
        <rect x="278" y="78" width="11" height="11" 
              rx="2" fill="#161b22"/>
        <rect x="278" y="92" width="11" height="11" 
              rx="2" fill="#161b22"/>
        <rect x="278" y="106" width="11" height="11" 
              rx="2" fill="#161b22"/>
        <rect x="278" y="120" width="11" height="11" 
              rx="2" fill="#161b22"/>
        <rect x="278" y="134" width="11" height="11" 
              rx="2" fill="#161b22"/>
        <rect x="292" y="50" width="11" height="11" 
              rx="2" fill="#161b22"/>
        <rect x="292" y="64" width="11" height="11" 
              rx="2" fill="#161b22"/>
        <rect x="292" y="78" width="11" height="11" 
              rx="2" fill="#161b22"/>
        <rect x="292" y="92" width="11" height="11" 
              rx="2" fill="#161b22"/>
        <rect x="292" y="106" width="11" height="11" 
              rx="2" fill="#161b22"/>
        <rect x="292" y="120" width="11" height="11" 
              rx="2" fill="#161b22"/>
        <rect x="292" y="134" width="11" height="11" 
              rx="2" fill="#161b22"/>
        <rect x="306" y="50" width="11" height="11" 
              rx="2" fill="#161b22"/>
        <rect x="306" y="64" width="11" height="11" 
              rx="2" fill="#161b22"/>
        <rect x="306" y="78" width="11" height="11" 
              rx="2" fill="#161b22"/>
        <rect x="306" y="92" width="11" height="11" 
              rx="2" fill="#161b22"/>
        <rect x="306" y="106" width="11" height="11" 
              rx="2" fill="#161b22"/>
        <rect x="306" y="120" width="11" height="11" 
              rx="2" fill="#161b22"/>
        <rect x="306" y="134" width="11" height="11" 
              rx="2" fill="#161b22"/>
        <rect x="320" y="50" width="11" height="11" 
              rx="2" fill="#161b22"/>
        <rect x="320" y="64" width="11" height="11" 
              rx="2" fill="#161b22"/>
        <rect x="320" y="78" width="11" height="11" 
              rx="2" fill="#161b22"/>
        <rect x="320" y="92" width="11" height="11" 
              rx="2" fill="#161b22"/>
        <rect x="320" y="106" width="11" height="11" 
              rx="2" fill="#161b22"/>
        <rect x="320" y="120" width="11" height="11" 
              rx="2" fill="#161b22"/>
        <rect x="320" y="134" width="11" height="11" 
              rx="2" fill="#161b22"/>
        <rect x="334" y="50" width="11" height="11" 
              rx="2" fill="#161b22"/>
        <rect x="334" y="64" width="11" height="11" 
              rx="2" fill="#161b22"/>
        <rect x="334" y="78" width="11" height="11" 
              rx="2" fill="#161b22"/>
        <rect x="334" y="92" width="11" height="11" 
              rx="2" fill="#161b22"/>
        <rect x="334" y="106" width="11" height="11" 
              rx="2" fill="#161b22"/>
        <rect x="334" y="120" width="11" height="11" 
              rx="2" fill="#161b22"/>
        <rect x="334" y="134" width="11" height="11" 
              rx="2" fill="#161b22"/>
        <rect x="348" y="50" width="11" height="11" 
              rx="2" fill="#161b22"/>
        <rect x="348" y="64" width="11" height="11" 
              rx="2" fill="#161b22"/>
        <rect x="348" y="78" width="11" height="11" 
              rx="2" fill="#161b22"/>
        <rect x="348" y="92" width="11" height="11" 
              rx="2" fill="#161b22"/>
        <rect x="348" y="106" width="11" height="11" 
              rx="2" fill="#161b22"/>
        <rect x="348" y="120" width="11" height="11" 
              rx="2" fill="#161b22"/>
        <rect x="348" y="134" width="11" height="11" 
              rx="2" fill="#161b22"/>
        <rect x="362" y="50" width="11" height="11" 
              rx="2" fill="#161b22"/>
        <rect x="362" y="64" width="11" height="11" 
              rx="2" fill="#161b22"/>
        <rect x="362" y="78" width="11" height="11" 
              rx="2" fill="#161b22"/>
        <rect x="362" y="92" width="11" height="11" 
              rx="2" fill="#161b22"/>
        <rect x="362" y="106" width="11" height="11" 
              rx="2" fill="#161b22"/>
        <rect x="362" y="120" width="11" height="11" 
              rx="2" fill="#161b22"/>
        <rect x="362" y="134" width="11" height="11" 
              rx="2" fill="#161b22"/>
        <rect x="376" y="50" width="11" height="11" 
              rx="2" fill="#161b22"/>
        <rect x="376" y="64" width="11" height="11" 
              rx="2" fill="#161b22"/>
        <rect x="376" y="78" width="11" height="11" 
              rx="2" fill="#161b22"/>
        <rect x="376" y="92" width="11" height="11" 
              rx="2" fill="#161b22"/>
        <rect x="376" y="106" width="11" height="11" 
              rx="2" fill="#161b22"/>
        <rect x="376" y="120" width="11" height="11" 
              rx="2" fill="#161b22"/>
        <rect x="376" y="134" width="11" height="11" 
              rx="2" fill="#161b22"/>
        <rect x="390" y="50" width="11" height="11" 
              rx="2" fill="#161b22"/>
        <rect x="390" y="64" width="11" height="11" 
              rx="2" fill="#161b22"/>
        <rect x="390" y="78" width="11" height="11" 
              rx="2" fill="#161b22"/>
        <rect x="390" y="92" width="11" height="11" 
              rx="2" fill="#161b22"/>
        <rect x="390" y="106" width="11" height="11" 
              rx="2" fill="#161b22"/>
        <rect x="390" y="120" width="11" height="11" 
              rx="2" fill="#161b22"/>
        <rect x="390" y="134" width="11" height="11" 
              rx="2" fill="#161b22"/>
        <rect x="404" y="50" width="11" height="11" 
              rx="2" fill="#161b22"/>
        <rect x="404" y="64" width="11" height="11" 
              rx="2" fill="#161b22"/>
        <rect x="404" y="78" width="11" height="11" 
              rx="2" fill="#161b22"/>
        <rect x="404" y="92" width="11" height="11" 
              rx="2" fill="#161b22"/>
        <rect x="404" y="106" width="11" height="11" 
              rx="2" fill="#161b22"/>
        <rect x="404" y="120" width="11" height="11" 
              rx="2" fill="#161b22"/>
        <rect x="404" y="134" width="11" height="11" 
              rx="2" fill="#161b22"/>
        <rect x="418" y="50" width="11" height="11" 
              rx="2" fill="#161b22"/>
        <rect x="418" y="64" width="11" height="11" 
              rx="2" fill="#161b22"/>
        <rect x="418" y="78" width="11" height="11" 
              rx="2" fill="#161b22"/>
        <rect x="418" y="92" width="11" height="11" 
              rx="2" fill="#161b22"/>
        <rect x="418" y="106" width="11" height="11" 
              rx="2" fill="#161b22"/>
        <rect x="418" y="120" width="11" height="11" 
              rx="2" fill="#161b22"/>
        <rect x="418" y="134" width="11" height="11" 
              rx="2" fill="#161b22"/>
        <rect x="432" y="50" width="11" height="11" 
              rx="2" fill="#161b22"/>
        <rect x="432" y="64" width="11" height="11" 
              rx="2" fill="#161b22"/>
        <rect x="432" y="78" width="11" height="11" 
              rx="2" fill="#161b22"/>
        <rect x="432" y="92" width="11" height="11" 
              rx="2" fill="#161b22"/>
        <rect x="432" y="106" width="11" height="11" 
              rx="2" fill="#161b22"/>
        <rect x="432" y="120" width="11" height="11" 
              rx="2" fill="#161b22"/>
        <rect x="432" y="134" width="11" height="11" 
              rx="2" fill="#161b22"/>
        <rect x="446" y="50" width="11" height="11" 
              rx="2" fill="#161b22"/>
        <rect x="446" y="64" width="11" height="11" 
              rx="2" fill="#161b22"/>
        <rect x="446" y="78" width="11" height="11" 
              rx="2" fill="#161b22"/>
        <rect x="446" y="92" width="11" height="11" 
              rx="2" fill="#161b22"/>
        <rect x="446" y="106" width="11" height="11" 
              rx="2" fill="#161b22"/>
        <rect x="446" y="120" width="11" height="11" 
              rx="2" fill="#161b22"/>
        <rect x="446" y="134" width="11" height="11" 
              rx="2" fill="#161b22"/>
        <rect x="460" y="50" width="11" height="11" 
              rx="2" fill="#161b22"/>
        <rect x="460" y="64" width="11" height="11" 
              rx="2" fill="#161b22"/>
        <rect x="460" y="78" width="11" height="11" 
              rx="2" fill="#161b22"/>
        <rect x="460" y="92" width="11" height="11" 
              rx="2" fill="#161b22"/>
        <rect x="460" y="106" width="11" height="11" 
              rx="2" fill="#161b22"/>
        <rect x="460" y="120" width="11" height="11" 
              rx="2" fill="#161b22"/>
        <rect x="460" y="134" width="11" height="11" 
              rx="2" fill="#161b22"/>
        <rect x="474" y="50" width="11" height="11" 
              rx="2" fill="#161b22"/>
        <rect x="474" y="64" width="11" height="11" 
              rx="2" fill="#161b22"/>
        <rect x="474" y="78" width="11" height="11" 
              rx="2" fill="#161b22"/>
        <rect x="474" y="92" width="11" height="11" 
              rx="2" fill="#161b22"/>
        <rect x="474" y="106" width="11" height="11" 
              rx="2" fill="#161b22"/>
        <rect x="474" y="120" width="11" height="11" 
              rx="2" fill="#161b22"/>
        <rect x="474" y="134" width="11" height="11" 
              rx="2" fill="#161b22"/>
        <rect x="488" y="50" width="11" height="11" 
              rx="2" fill="#161b22"/>
        <rect x="488" y="64" width="11" height="11" 
              rx="2" fill="#161b22"/>
        <rect x="488" y="78" width="11" height="11" 
              rx="2" fill="#161b22"/>
        <rect x="488" y="92" width="11" height="11" 
              rx="2" fill="#161b22"/>
        <rect x="488" y="106" width="11" height="11" 
              rx="2" fill="#161b22"/>
        <rect x="488" y="120" width="11" height="11" 
              rx="2" fill="#161b22"/>
        <rect x="488" y="134" width="11" height="11" 
              rx="2" fill="#161b22"/>
        <rect x="502" y="50" width="11" height="11" 
              rx="2" fill="#161b22"/>
        <rect x="502" y="64" width="11" height="11" 
              rx="2" fill="#161b22"/>
        <rect x="502" y="78" width="11" height="11" 
              rx="2" fill="#161b22"/>
        <rect x="502" y="92" width="11" height="11" 
              rx="2" fill="#161b22"/>
        <rect x="502" y="106" width="11" height="11" 
              rx="2" fill="#161b22"/>
        <rect x="502" y="120" width="11" height="11" 
              rx="2" fill="#161b22"/>
        <rect x="502" y="134" width="11" height="11" 
              rx="2" fill="#161b22"/>
        <rect x="516" y="50" width="11" height="11" 
              rx="2" fill="#161b22"/>
        <rect x="516" y="64" width="11" height="11" 
              rx="2" fill="#161b22"/>
        <rect x="516" y="78" width="11" height="11" 
              rx="2" fill="#161b22"/>
        <rect x="516" y="92" width="11" height="11" 
              rx="2" fill="#161b22"/>
        <rect x="516" y="106" width="11" height="11" 
              rx="2" fill="#161b22"/>
        <rect x="516" y="120" width="11" height="11" 
              rx="2" fill="#161b22"/>
        <rect x="516" y="134" width="11" height="11" 
              rx="2" fill="#161b22"/>
        <rect x="530" y="50" width="11" height="11" 
              rx="2" fill="#161b22"/>
        <rect x="530" y="64" width="11" height="11" 
              rx="2" fill="#161b22"/>
        <rect x="530" y="78" width="11" height="11" 
              rx="2" fill="#161b22"/>
        <rect x="530" y="92" width="11" height="11" 
              rx="2" fill="#161b22"/>
        <rect x="530" y="106" width="11" height="11" 
              rx="2" fill="#161b22"/>
        <rect x="530" y="120" width="11" height="11" 
              rx="2" fill="#161b22"/>
        <rect x="530" y="134" width="11" height="11" 
              rx="2" fill="#161b22"/>
        <rect x="544" y="50" width="11" height="11" 
              rx="2" fill="#161b22"/>
        <rect x="544" y="64" width="11" height="11" 
              rx="2" fill="#161b22"/>
        <rect x="544" y="78" width="11" height="11" 
              rx="2" fill="#161b22"/>
        <rect x="544" y="92" width="11" height="11" 
              rx="2" fill="#161b22"/>
        <rect x="544" y="106" width="11" height="11" 
              rx="2" fill="#161b22"/>
        <rect x="544" y="120" width="11" height="11" 
              rx="2" fill="#161b22"/>
        <rect x="544" y="134" width="11" height="11" 
              rx="2" fill="#161b22"/>
        <rect x="558" y="50" width="11" height="11" 
              rx="2" fill="#161b22"/>
        <rect x="558" y="64" width="11" height="11" 
              rx="2" fill="#161b22"/>
        <rect x="558" y="78" width="11" height="11" 
              rx="2" fill="#161b22"/>
        <rect x="558" y="92" width="11" height="11" 
              rx="2" fill="#161b22"/>
        <rect x="558" y="106" width="11" height="11" 
              rx="2" fill="#161b22"/>
        <rect x="558" y="120" width="11" height="11" 
              rx="2" fill="#161b22"/>
        <rect x="558" y="134" width="11" height="11" 
              rx="2" fill="#161b22"/>
        <rect x="572" y="50" width="11" height="11" 
              rx="2" fill="#161b22"/>
        <rect x="572" y="64" width="11" height="11" 
              rx="2" fill="#161b22"/>
        <rect x="572" y="78" width="11" height="11" 
              rx="2" fill="#161b22"/>
        <rect x="572" y="92" width="11" height="11" 
              rx="2" fill="#161b22"/>
        <rect x="572" y="106" width="11" height="11" 
              rx="2" fill="#161b22"/>
        <rect x="572" y="120" width="11" height="11" 
              rx="2" fill="#161b22"/>
        <rect x="572" y="134" width="11" height="11" 
              rx="2" fill="#161b22"/>
        <rect x="586" y="50" width="11" height="11" 
              rx="2" fill="#161b22"/>
        <rect x="586" y="64" width="11" height="11" 
              rx="2" fill="#161b22"/>
        <rect x="586" y="78" width="11" height="11" 
              rx="2" fill="#161b22"/>
        <rect x="586" y="92" width="11" height="11" 
              rx="2" fill="#161b22"/>
        <rect x="586" y="106" width="11" height="11" 
              rx="2" fill="#161b22"/>
        <rect x="586" y="120" width="11" height="11" 
              rx="2" fill="#161b22"/>
        <rect x="586" y="134" width="11" height="11" 
              rx="2" fill="#161b22"/>
        <rect x="600" y="50" width="11" height="11" 
              rx="2" fill="#161b22"/>
        <rect x="600" y="64" width="11" height="11" 
              rx="2" fill="#161b22"/>
        <rect x="600" y="78" width="11" height="11" 
              rx="2" fill="#161b22"/>
        <rect x="600" y="92" width="11" height="11" 
              rx="2" fill="#161b22"/>
        <rect x="600" y="106" width="11" height="11" 
              rx="2" fill="#161b22"/>
        <rect x="600" y="120" width="11" height="11" 
              rx="2" fill="#161b22"/>
        <rect x="600" y="134" width="11" height="11" 
              rx="2" fill="#161b22"/>
        <rect x="614" y="50" width="11" height="11" 
              rx="2" fill="#161b22"/>
        <rect x="614" y="64" width="11" height="11" 
              rx="2" fill="#161b22"/>
        <rect x="614" y="78" width="11" height="11" 
              rx="2" fill="#161b22"/>
        <rect x="614" y="92" width="11" height="11" 
              rx="2" fill="#161b22"/>
        <rect x="614" y="106" width="11" height="11" 
              rx="2" fill="#161b22"/>
        <rect x="614" y="120" width="11" height="11" 
              rx="2" fill="#161b22"/>
        <rect x="614" y="134" width="11" height="11" 
              rx="2" fill="#161b22"/>
        <rect x="628" y="50" width="11" height="11" 
              rx="2" fill="#161b22"/>
        <rect x="628" y="64" width="11" height="11" 
              rx="2" fill="#161b22"/>
        <rect x="628" y="78" width="11" height="11" 
              rx="2" fill="#161b22"/>
        <rect x="628" y="92" width="11" height="11" 
              rx="2" fill="#161b22"/>
        <rect x="628" y="106" width="11" height="11" 
              rx="2" fill="#161b22"/>
        <rect x="628" y="120" width="11" height="11" 
              rx="2" fill="#161b22"/>
        <rect x="628" y="134" width="11" height="11" 
              rx="2" fill="#161b22"/>
        <rect x="642" y="50" width="11" height="11" 
              rx="2" fill="#161b22"/>
        <rect x="642" y="64" width="11" height="11" 
              rx="2" fill="#161b22"/>
        <rect x="642" y="78" width="11" height="11" 
              rx="2" fill="#161b22"/>
        <rect x="642" y="92" width="11" height="11" 
              rx="2" fill="#161b22"/>
        <rect x="642" y="106" width="11" height="11" 
              rx="2" fill="#161b22"/>
        <rect x="642" y="120" width="11" height="11" 
              rx="2" fill="#161b22"/>
        <rect x="642" y="134" width="11" height="11" 
              rx="2" fill="#161b22"/>
        <rect x="656" y="50" width="11" height="11" 
              rx="2" fill="#161b22"/>
        <rect x="656" y="64" width="11" height="11" 
              rx="2" fill="#161b22"/>
        <rect x="656" y="78" width="11" height="11" 
              rx="2" fill="#161b22"/>
        <rect x="656" y="92" width="11" height="11" 
              rx="2" fill="#161b22"/>
        <rect x="656" y="106" width="11" height="11" 
              rx="2" fill="#161b22"/>
        <rect x="656" y="120" width="11" height="11" 
              rx="2" fill="#161b22"/>
        <rect x="656" y="134" width="11" height="11" 
              rx="2" fill="#161b22"/>
        <rect x="670" y="50" width="11" height="11" 
              rx="2" fill="#161b22"/>
        <rect x="670" y="64" width="11" height="11" 
              rx="2" fill="#161b22"/>
        <rect x="670" y="78" width="11" height="11" 
              rx="2" fill="#161b22"/>
        <rect x="670" y="92" width="11" height="11" 
              rx="2" fill="#161b22"/>
        <rect x="670" y="106" width="11" height="11" 
              rx="2" fill="#161b22"/>
        <rect x="670" y="120" width="11" height="11" 
              rx="2" fill="#161b22"/>
        <rect x="670" y="134" width="11" height="11" 
              rx="2" fill="#161b22"/>
        <rect x="684" y="50" width="11" height="11" 
              rx="2" fill="#161b22"/>
        <rect x="684" y="64" width="11" height="11" 
              rx="2" fill="#161b22"/>
        <rect x="684" y="78" width="11" height="11" 
              rx="2" fill="#161b22"/>
        <rect x="684" y="92" width="11" height="11" 
              rx="2" fill="#161b22"/>
        <rect x="684" y="106" width="11" height="11" 
              rx="2" fill="#161b22"/>
        <rect x="684" y="120" width="11" height="11" 
              rx="2" fill="#161b22"/>
        <rect x="684" y="134" width="11" height="11" 
              rx="2" fill="#161b22"/>
        <rect x="698" y="50" width="11" height="11" 
              rx="2" fill="#161b22"/>
        <rect x="698" y="64" width="11" height="11" 
              rx="2" fill="#161b22"/>
        <rect x="698" y="78" width="11" height="11" 
              rx="2" fill="#161b22"/>
        <rect x="698" y="92" width="11" height="11" 
              rx="2" fill="#161b22"/>
        <rect x="698" y="106" width="11" height="11" 
              rx="2" fill="#161b22"/>
        <rect x="698" y="120" width="11" height="11" 
              rx="2" fill="#161b22"/>
        <rect x="698" y="134" width="11" height="11" 
              rx="2" fill="#161b22"/>
        <rect x="712" y="50" width="11" height="11" 
              rx="2" fill="#161b22"/>
        <rect x="712" y="64" width="11" height="11" 
              rx="2" fill="#161b22"/>
        <rect x="712" y="78" width="11" height="11" 
              rx="2" fill="#161b22"/>
        <rect x="712" y="92" width="11" height="11" 
              rx="2" fill="#161b22"/>
        <rect x="712" y="106" width="11" height="11" 
              rx="2" fill="#161b22"/>
        <rect x="712" y="120" width="11" height="11" 
              rx="2" fill="#161b22"/>
        <rect x="712" y="134" width="11" height="11" 
              rx="2" fill="#161b22"/>
        <rect x="726" y="50" width="11" height="11" 
              rx="2" fill="#161b22"/>
        <rect x="726" y="64" width="11" height="11" 
              rx="2" fill="#161b22"/>
        <rect x="726" y="78" width="11" height="11" 
              rx="2" fill="#161b22"/>
        <rect x="726" y="92" width="11" height="11" 
              rx="2" fill="#161b22"/>
        <rect x="726" y="106" width="11" height="11" 
              rx="2" fill="#161b22"/>
        <rect x="726" y="120" width="11" height="11" 
              rx="2" fill="#161b22"/>
        <rect x="726" y="134" width="11" height="11" 
              rx="2" fill="#161b22"/>
        <rect x="740" y="50" width="11" height="11" 
              rx="2" fill="#161b22"/>
        <rect x="740" y="64" width="11" height="11" 
              rx="2" fill="#161b22"/>
        <rect x="740" y="78" width="11" height="11" 
              rx="2" fill="#161b22"/>
        <rect x="740" y="92" width="11" height="11" 
              rx="2" fill="#161b22"/>
        <rect x="740" y="106" width="11" height="11" 
              rx="2" fill="#161b22"/>
        <rect x="740" y="120" width="11" height="11" 
              rx="2" fill="#161b22"/>
        <rect x="740" y="134" width="11" height="11" 
              rx="2" fill="#161b22"/>
        <rect x="754" y="50" width="11" height="11" 
              rx="2" fill="#161b22"/>
        <rect x="754" y="64" width="11" height="11" 
              rx="2" fill="#161b22"/>
        <rect x="754" y="78" width="11" height="11" 
              rx="2" fill="#161b22"/>
        <rect x="754" y="92" width="11" height="11" 
              rx="2" fill="#161b22"/>
        <rect x="754" y="106" width="11" height="11" 
              rx="2" fill="#161b22"/>
        <rect x="754" y="120" width="11" height="11" 
              rx="2" fill="#161b22"/>
        <rect x="754" y="134" width="11" height="11" 
              rx="2" fill="#161b22"/>
        <rect x="768" y="50" width="11" height="11" 
              rx="2" fill="#161b22"/>
        <rect x="768" y="64" width="11" height="11" 
              rx="2" fill="#161b22"/>
        <rect x="768" y="78" width="11" height="11" 
              rx="2" fill="#161b22"/>
        <rect x="768" y="92" width="11" height="11" 
              rx="2" fill="#161b22"/>
        <rect x="768" y="106" width="11" height="11" 
              rx="2" fill="#161b22"/>
    </g>
    
    <!-- Motion path (invisible) -->
    <path id="motionPath" d="M 45,55 L 45,69 L 45,83 L 45,97 L 45,111 L 45,125 L 45,139 L 59,139 L 59,125 L 59,111 L 59,97 L 59,83 L 59,69 L 59,55 L 73,55 L 73,69 L 73,83 L 73,97 L 73,111 L 73,125 L 73,139 L 87,139 L 87,125 L 87,111 L 87,97 L 87,83 L 87,69 L 87,55 L 101,55 L 101,69 L 101,83 L 101,97 L 101,111 L 101,125 L 101,139 L 115,139 L 115,125 L 115,111 L 115,97 L 115,83 L 115,69 L 115,55 L 129,55 L 129,69 L 129,83 L 129,97 L 129,111 L 129,125 L 129,139 L 143,139 L 143,125 L 143,111 L 143,97 L 143,83 L 143,69 L 143,55 L 157,55 L 157,69 L 157,83 L 157,97 L 157,111 L 157,125 L 157,139 L 171,139 L 171,125 L 171,111 L 171,97 L 171,83 L 171,69 L 171,55 L 185,55 L 185,69 L 185,83 L 185,97 L 185,111 L 185,125 L 185,139 L 199,139 L 199,125 L 199,111 L 199,97 L 199,83 L 199,69 L 199,55 L 213,55 L 213,69 L 213,83 L 213,97 L 213,111 L 213,125 L 213,139 L 227,139 L 227,125 L 227,111 L 227,97 L 227,83 L 227,69 L 227,55 L 241,55 L 241,69 L 241,83 L 241,97 L 241,111 L 241,125 L 241,139 L 255,139 L 255,125 L 255,111 L 255,97 L 255,83 L 255,69 L 255,55 L 269,55 L 269,69 L 269,83 L 269,97 L 269,111 L 269,125 L 269,139 L 283,139 L 283,125 L 283,111 L 283,97 L 283,83 L 283,69 L 283,55 L 297,55 L 297,69 L 297,83 L 297,97 L 297,111 L 297,125 L 297,139 L 311,139 L 311,125 L 311,111 L 311,97 L 311,83 L 311,69 L 311,55 L 325,55 L 325,69 L 325,83 L 325,97 L 325,111 L 325,125 L 325,139 L 339,139 L 339,125 L 339,111 L 339,97 L 339,83 L 339,69 L 339,55 L 353,55 L 353,69 L 353,83 L 353,97 L 353,111 L 353,125 L 353,139 L 367,139 L 367,125 L 367,111 L 367,97 L 367,83 L 367,69 L 367,55 L 381,55 L 381,69 L 381,83 L 381,97 L 381,111 L 381,125 L 381,139 L 395,139 L 395,125 L 395,111 L 395,97 L 395,83 L 395,69 L 395,55 L 409,55 L 409,69 L 409,83 L 409,97 L 409,111 L 409,125 L 409,139 L 423,139 L 423,125 L 423,111 L 423,97 L 423,83 L 423,69 L 423,55 L 437,55 L 437,69 L 437,83 L 437,97 L 437,111 L 437,125 L 437,139 L 451,139 L 451,125 L 451,111 L 451,97 L 451,83 L 451,69 L 451,55 L 465,55 L 465,69 L 465,83 L 465,97 L 465,111 L 465,125 L 465,139 L 479,139 L 479,125 L 479,111 L 479,97 L 479,83 L 479,69 L 479,55 L 493,55 L 493,69 L 493,83 L 493,97 L 493,111 L 493,125 L 493,139 L 507,139 L 507,125 L 507,111 L 507,97 L 507,83 L 507,69 L 507,55 L 521,55 L 521,69 L 521,83 L 521,97 L 521,111 L 521,125 L 521,139 L 535,139 L 535,125 L 535,111 L 535,97 L 535,83 L 535,69 L 535,55 L 549,55 L 549,69 L 549,83 L 549,97 L 549,111 L 549,125 L 549,139 L 563,139 L 563,125 L 563,111 L 563,97 L 563,83 L 563,69 L 563,55 L 577,55 L 577,69 L 577,83 L 577,97 L 577,111 L 577,125 L 577,139 L 591,139 L 591,125 L 591,111 L 591,97 L 591,83 L 591,69 L 591,55 L 605,55 L 605,69 L 605,83 L 605,97 L 605,111 L 605,125 L 605,139 L 619,139 L 619,125 L 619,111 L 619,97 L 619,83 L 619,69 L 619,55 L 633,55 L 633,69 L 633,83 L 633,97 L 633,111 L 633,125 L 633,139 L 647,139 L 647,125 L 647,111 L 647,97 L 647,83 L 647,69 L 647,55 L 661,55 L 661,69 L 661,83 L 661,97 L 661,111 L 661,125 L 661,139 L 675,139 L 675,125 L 675,111 L 675,97 L 675,83 L 675,69 L 675,55 L 689,55 L 689,69 L 689,83 L 689,97 L 689,111 L 689,125 L 689,139 L 703,139 L 703,125 L 703,111 L 703,97 L 703,83 L 703,69 L 703,55 L 717,55 L 717,69 L 717,83 L 717,97 L 717,111 L 717,125 L 717,139 L 731,139 L 731,125 L 731,111 L 731,97 L 731,83 L 731,69 L 731,55 L 745,55 L 745,69 L 745,83 L 745,97 L 745,111 L 745,125 L 745,139 L 759,139 L 759,125 L 759,111 L 759,97 L 759,83 L 759,69 L 759,55 L 773,55 L 773,69 L 773,83 L 773,97 L 773,111 L 773,125 L 773,139" fill="none" stroke="none"/>
    
    <!-- Pac-Man -->
    <g id="pacman" filter="url(#shadow)">
        <animateMotion dur="29.68s" repeatCount="indefinite" rotate="auto">
            <mpath href="#motionPath"/>
        </animateMotion>
        
        <!-- Body -->
        <circle cx="0" cy="0" r="8" fill="url(#pacmanGradient)"/>
        
        <!-- Animated mouth -->
        <g>
            <path fill="#0d1117">
                <animate attributeName="d" dur="0.15s" repeatCount="indefinite"
                    values="M 0,0 L 8,3 L 8,-3 Z;
                            M 0,0 L 8,1 L 8,-1 Z;
                            M 0,0 L 8,3 L 8,-3 Z"/>
            </path>
        </g>
        
        <!-- Eye -->
        <circle cx="-1" cy="-4" r="1.5" fill="#0d1117"/>
    </g>
    
    <!-- Score display -->
    <g id="score">
        <rect x="682" y="5" width="110" height="25" rx="5" fill="#30363d" opacity="0.8"/>
        <text x="737" y="22" fill="#ffff00" text-anchor="middle" 
              font-family="'Courier New', monospace" font-size="12" font-weight="bold">
            SCORE: 0
        </text>
    </g>
    
    <!-- Legend -->
    <g transform="translate(662, 158)">
        <text x="0" y="0" fill="#8b949e" font-family="'Segoe UI', Arial, sans-serif" font-size="9">Less</text>
        <rect x="30" y="-9" width="10" height="10" rx="2" fill="#161b22"/>
        <rect x="44" y="-9" width="10" height="10" rx="2" fill="#0e4429"/>
        <rect x="58" y="-9" width="10" height="10" rx="2" fill="#006d32"/>
        <rect x="72" y="-9" width="10" height="10" rx="2" fill="#26a641"/>
        <rect x="86" y="-9" width="10" height="10" rx="2" fill="#39d353"/>
        <text x="105" y="0" fill="#8b949e" font-family="'Segoe UI', Arial, sans-serif" font-size="9">More</text>
    </g>
</svg>